{"title":"The Stepford Wives - 2004 - 720p (eng,fr,sp subs) - [=Faith=]","uid":9925748,"size":707999367,"categoryP":"video","categoryS":"movies","magnet":"?xt=urn:btih:2a8d304b5eb4ed4737327051e711d791bc6a6e97&amp;dn=The+Stepford+Wives+-+2004+-+720p+%28eng%2Cfr%2Csp+subs%29+-+%5B%3DFaith%3D%5D&amp;tr=udp%3A%2F%2Ftracker.openbittorrent.com%3A80&amp;tr=udp%3A%2F%2Fopen.demonii.com%3A1337&amp;tr=udp%3A%2F%2Ftracker.coppersurfer.tk%3A6969&amp;tr=udp%3A%2F%2Fexodus.desync.com%3A6969","seeders":4,"leechers":2,"uploader":"Faithwyn","files":3,"time":1397063977,"description":"            The Stepford Wives 2004 (Subs: Engish,French &amp; Spanish)\n\nJoanna Eberhart, a wildly succesful president of a TV Network, after a series of shocking events suffers a nervous breakdown and is moved by her milquetoast of a husband, Walter, from Manhattan to the chic, upper-class and very modern planned community of Stepford, Connecticut. Once there, she makes good friends with the ascerbic Bobbie Markowitz, a jewish writer who's also a recovering alcoholic. Together they find out, much to their growing stupor and-then horror, that all the housewives in town are strangely blissful, and somehow... doomed. What is going on behind the closed doors of the Stepford Men's Association and the Stepford Day Spa? Why is everything perfect here? Will it be too late for Joanna and Bobbie when they finally find out?\n\nGeneral:\nComplete name                            : The Stepford Wives 2004.mp4\nFormat                                   : MPEG-4\nFormat profile                           : Base Media / Version 2\nCodec ID                                 : mp42\nFile size                                : 675 MiB\nDuration                                 : 1h 32mn\nOverall bit rate mode                    : Variable\nOverall bit rate                         : 1 017 Kbps\nEncoded date                             : UTC 2014-04-09 14:04:25\nTagged date                              : UTC 2014-04-09 14:37:36\nWriting application                      : HandBrake 0.9.9 2013052900\n\nVideo:\nID                                       : 1\nFormat                                   : AVC\nFormat/Info                              : Advanced Video Codec\nFormat profile                           : &lt;a class=&quot;__cf_email__&quot; href=&quot;/cdn-cgi/l/email-protection&quot; data-cfemail=&quot;074a666e69474b332937&quot;&gt;[email&amp;#160;protected]&lt;/a&gt;&lt;script cf-hash='f9e31' type=&quot;text/javascript&quot;&gt;\n/* &lt;![CDATA[ */!function(){try{var t=&quot;currentScript&quot;in document?document.currentScript:function(){for(var t=document.getElementsByTagName(&quot;script&quot;),e=t.length;e--;)if(t[e].getAttribute(&quot;cf-hash&quot;))return t[e]}();if(t&amp;&amp;t.previousSibling){var e,r,n,i,c=t.previousSibling,a=c.getAttribute(&quot;data-cfemail&quot;);if(a){for(e=&quot;&quot;,r=parseInt(a.substr(0,2),16),n=2;a.length-n;n+=2)i=parseInt(a.substr(n,2),16)^r,e+=String.fromCharCode(i);e=document.createTextNode(e),c.parentNode.replaceChild(e,c)}}}catch(u){}}();/* ]]&gt; */&lt;/script&gt;\nFormat settings, CABAC                   : Yes\nFormat settings, ReFrames                : 4 frames\nCodec ID                                 : avc1\nCodec ID/Info                            : Advanced Video Coding\nDuration                                 : 1h 32mn\nBit rate mode                            : Variable\nBit rate                                 : 840 Kbps\nWidth                                    : 720 pixels\nHeight                                   : 480 pixels\nDisplay aspect ratio                     : 16:9\nOriginal display aspect ratio            : 16:9\nFrame rate mode                          : Variable\nFrame rate                               : 23.976 fps\nMinimum frame rate                       : 15.851 fps\nMaximum frame rate                       : 29.970 fps\nStandard                                 : NTSC\nColor space                              : YUV\nChroma subsampling                       : 4:2:0\nBit depth                                : 8 bits\nScan type                                : Progressive\nBits/(Pixel*Frame)                       : 0.101\nStream size                              : 558 MiB (83%)\nWriting library                          : x264 core 130 r2273 b3065e6\nEncoded date                             : UTC 2014-04-09 14:04:25\nTagged date                              : UTC 2014-04-09 14:37:36\nColor primaries                          : BT.601 NTSC\nTransfer characteristics                 : BT.709\nMatrix coefficients                      : BT.601\n\nAudio:\nID                                       : 2\nFormat                                   : AAC\nFormat/Info                              : Advanced Audio Codec\nFormat profile                           : LC\nCodec ID                                 : 40\nDuration                                 : 1h 32mn\nBit rate mode                            : Variable\nBit rate                                 : 160 Kbps\nMaximum bit rate                         : 325 Kbps\nChannel(s)                               : 2 channels\nChannel positions                        : Front: L R\nSampling rate                            : 48.0 KHz\nCompression mode                         : Lossy\nDelay relative to video                  : 83ms\nStream size                              : 106 MiB (16%)\nLanguage                                 : English\nEncoded date                             : UTC 2014-04-09 14:04:25\nTagged date                              : UTC 2014-04-09 14:37:35\n\nText #1\nID                                       : 3\nFormat                                   : mp4s\nCodec ID                                 : E0\nDuration                                 : 1h 27mn\nBit rate mode                            : Variable\nBit rate                                 : 5 826 bps\nMaximum bit rate                         : 4 282 Mbps\nDelay relative to video                  : 83ms\nStream size                              : 3.63 MiB (1%)\nLanguage                                 : English\nEncoded date                             : UTC 2014-04-09 14:04:25\nTagged date                              : UTC 2014-04-09 14:35:56\n\nText #2\nID                                       : 4\nFormat                                   : mp4s\nCodec ID                                 : E0\nDuration                                 : 1h 27mn\nBit rate mode                            : Variable\nBit rate                                 : 5 772 bps\nMaximum bit rate                         : 4 282 Mbps\nDelay relative to video                  : 83ms\nStream size                              : 3.60 MiB (1%)\nLanguage                                 : Spanish\nEncoded date                             : UTC 2014-04-09 14:04:25\nTagged date                              : UTC 2014-04-09 14:35:56\n\nText #3\nID                                       : 5\nFormat                                   : mp4s\nCodec ID                                 : E0\nDuration                                 : 1h 25mn\nBit rate mode                            : Variable\nBit rate                                 : 9 bps\nNominal bit rate                         : 10 bps\nMaximum bit rate                         : 387 Mbps\nDelay relative to video                  : 83ms\nStream size                              : 5.84 KiB (0%)\nLanguage                                 : French\nEncoded date                             : UTC 2014-04-09 14:04:25\nTagged date                              : UTC 2014-04-09 14:35:08\n\nText #4\nID                                       : 6\nFormat                                   : Apple text\nCodec ID                                 : text\nDuration                                 : 1h 32mn\nBit rate mode                            : Variable\nBit rate                                 : 1 bps\nStream size                              : 375 Bytes (0%)\nEncoded date                             : UTC 2014-04-09 14:04:25\nTagged date                              : UTC 2014-04-09 14:37:36\n\n","torrent":{"xt":"urn:btih:2a8d304b5eb4ed4737327051e711d791bc6a6e97","amp;dn":"The+Stepford+Wives+-+2004+-+720p+%28eng%2Cfr%2Csp+subs%29+-+%5B%3DFaith%3D%5D","amp;tr":["udp%3A%2F%2Ftracker.openbittorrent.com%3A80","udp%3A%2F%2Fopen.demonii.com%3A1337","udp%3A%2F%2Ftracker.coppersurfer.tk%3A6969","udp%3A%2F%2Fexodus.desync.com%3A6969"],"infoHash":"2a8d304b5eb4ed4737327051e711d791bc6a6e97","infoHashBuffer":{"type":"Buffer","data":[42,141,48,75,94,180,237,71,55,50,112,81,231,17,215,145,188,106,110,151]},"announce":[],"urlList":[]}}